# File created by Blade
# Date/Time:  Thu Sep 25 14:26:36 2014
# Frame Rate: 120.000 fps
#------------------------------------------------------
:FULLY-SPECIFIED
:DEGREES
1083
root 4.523656 26.004383 0.859789 -40.909657 82.630134 50.217985
Spine -44.160981 0.295232 0.268073
Head -109.026695 7.301430 7.779405
LeftShoulder -36.117679 3.210589 42.870793
LeftArm 127.093215 -55.755076 -122.291040
LeftForeArm 36.557044 -0.000000 51.194976
LeftHand -35.446708 -0.000000 123.465896
LeftHandThumb1 -26.253704 0.000000 33.147579
RightShoulder -31.838996 31.579073 -52.038338
RightArm 235.600773 113.643480 231.725431
RightForeArm -58.247600 -0.000000 72.638718
RightHand -14.748667 -0.000000 -66.066367
RightHandThumb1 -24.326973 -0.000000 -32.862282
LeftUpLeg 40.364083 -1.442993 22.697036
LeftLeg 78.878815 -0.000000 -0.000000
LeftFoot -21.720521 9.246011 -32.085593
LeftToeBase -2.822414 -0.000000 0.000000
RightUpLeg 33.985346 2.502849 -22.983797
RightLeg 71.199396 -0.000000 -0.000000
RightFoot -16.454139 -33.219885 1.965019
RightToeBase 2.817390 -0.000000 -0.000000
1084
root 4.523129 26.023285 0.874797 -40.954512 82.543059 50.082368
Spine -44.329145 0.383615 0.172668
Head -108.910533 6.958864 7.802468
LeftShoulder -35.892956 3.032666 42.715218
LeftArm 127.546526 -55.849854 -122.078088
LeftForeArm 36.445516 0.000000 50.776693
LeftHand -35.438593 -0.000000 123.309375
LeftHandThumb1 -26.253704 0.000000 33.147579
RightShoulder -32.168997 31.354739 -52.326389
RightArm 235.749811 113.865585 232.272575
RightForeArm -58.323979 -0.000000 72.522019
RightHand -14.736311 -0.000000 -66.108001
RightHandThumb1 -24.326973 -0.000000 -32.862282
LeftUpLeg 40.526441 -1.493653 22.542602
LeftLeg 78.261896 -0.000000 -0.000000
LeftFoot -22.229081 8.926389 -31.743742
LeftToeBase -1.737780 -0.000000 0.000000
RightUpLeg 33.940888 2.480800 -22.912840
RightLeg 71.110614 -0.000000 -0.000000
RightFoot -16.468592 -33.255823 1.995504
RightToeBase 2.919156 -0.000000 -0.000000
1085
root 4.525006 26.048377 0.891495 -40.952102 82.472336 49.992848
Spine -44.527412 0.397680 0.078860
Head -108.744021 6.768765 7.836613
LeftShoulder -35.677868 3.007454 42.763450
LeftArm 127.736207 -56.128970 -121.895601
LeftForeArm 36.122013 -0.000000 50.498386
LeftHand -35.447730 0.000000 123.178051
LeftHandThumb1 -26.253704 0.000000 33.147579
RightShoulder -32.270901 31.163083 -52.399698
RightArm 235.182917 114.124454 231.702104
RightForeArm -58.876987 0.000000 72.152720
RightHand -16.505454 -0.000000 -67.192716
RightHandThumb1 -24.326973 -0.000000 -32.862282
LeftUpLeg 40.757146 -1.565562 22.374418
LeftLeg 77.439024 -0.000000 -0.000000
LeftFoot -22.731930 8.384942 -31.460038
LeftToeBase -0.874158 -0.000000 0.000000
RightUpLeg 33.921376 2.447278 -22.863086
RightLeg 70.998896 -0.000000 -0.000000
RightFoot -16.481317 -33.272035 2.031935
RightToeBase 2.944198 -0.000000 -0.000000
1086
root 4.523630 26.069367 0.904586 -41.009945 82.454383 49.780110
Spine -44.803854 0.243114 0.037835
Head -108.599993 6.737644 7.912950
LeftShoulder -35.556198 2.836875 42.820599
LeftArm 127.694560 -56.552607 -121.233364
LeftForeArm 35.763790 -0.000000 50.065257
LeftHand -35.436569 0.000000 123.155347
LeftHandThumb1 -26.253704 0.000000 33.147579
RightShoulder -32.120640 31.130209 -52.421437
RightArm 234.179229 114.077047 230.827011
RightForeArm -58.607132 -0.000000 71.898420
RightHand -16.524043 -0.000000 -67.755198
RightHandThumb1 -24.326973 -0.000000 -32.862282
LeftUpLeg 40.880631 -1.612019 22.260394
LeftLeg 76.495542 -0.000000 -0.000000
LeftFoot -23.298164 7.877095 -31.246200
LeftToeBase 0.148880 -0.000000 -0.000000
RightUpLeg 33.854988 2.346805 -22.843968
RightLeg 70.881269 -0.000000 -0.000000
RightFoot -16.481056 -33.294373 2.056833
RightToeBase 3.014023 -0.000000 -0.000000
1087
root 4.520317 26.084788 0.920726 -41.449709 82.471600 49.197219
Spine -45.050804 0.211219 -0.036278
Head -108.575437 6.348666 7.925194
LeftShoulder -35.225630 2.438530 42.528974
LeftArm 127.842992 -57.165763 -120.332314
LeftForeArm 35.288737 -0.000000 49.490081
LeftHand -35.450254 -0.000000 123.091655
LeftHandThumb1 -26.253704 0.000000 33.147579
RightShoulder -32.386667 30.839681 -52.673780
RightArm 234.217847 114.260359 231.186563
RightForeArm -58.617634 0.000000 71.765085
RightHand -16.454938 -0.000000 -67.884916
RightHandThumb1 -24.326973 -0.000000 -32.862282
LeftUpLeg 40.974090 -1.732784 22.168431
LeftLeg 75.475488 -0.000000 -0.000000
LeftFoot -23.943591 7.390898 -31.067479
LeftToeBase 0.964717 -0.000000 -0.000000
RightUpLeg 33.814783 2.193760 -22.790030
RightLeg 70.777653 -0.000000 -0.000000
RightFoot -16.440781 -33.369110 2.035588
RightToeBase 3.037935 -0.000000 -0.000000
1088
root 4.518749 26.099254 0.933164 -41.811199 82.524351 48.676084
Spine -45.327738 0.013882 -0.077515
Head -108.499070 6.239803 8.086276
LeftShoulder -34.923285 1.822101 42.427640
LeftArm 127.452582 -58.134295 -118.777654
LeftForeArm 34.732775 -0.000000 48.808826
LeftHand -35.380587 -0.000000 123.138087
LeftHandThumb1 -26.253704 0.000000 33.147579
RightShoulder -32.323640 30.765809 -52.675723
RightArm 233.594298 114.308168 230.653519
RightForeArm -58.417163 -0.000000 71.568089
RightHand -16.475330 0.000000 -68.202883
RightHandThumb1 -24.326973 -0.000000 -32.862282
LeftUpLeg 41.017539 -1.824442 22.090712
LeftLeg 74.430767 -0.000000 -0.000000
LeftFoot -24.475456 7.127569 -30.886014
LeftToeBase 1.705016 -0.000000 -0.000000
RightUpLeg 33.768917 2.021434 -22.782402
RightLeg 70.674180 -0.000000 -0.000000
RightFoot -16.432283 -33.394122 2.058894
RightToeBase 3.049606 -0.000000 -0.000000
1089
root 4.517334 26.106163 0.941357 -42.474350 82.532166 47.831821
Spine -45.621639 -0.466912 -0.054351
Head -108.428464 6.849120 8.266575
LeftShoulder -36.033485 5.279811 42.970554
LeftArm 128.852411 -55.782014 -123.217823
LeftForeArm 35.148095 -0.000000 50.605577
LeftHand -35.908915 -0.000000 122.283607
LeftHandThumb1 -26.253704 0.000000 33.147579
RightShoulder -31.639250 31.058281 -51.924984
RightArm 232.014252 114.031065 228.592639
RightForeArm -57.843368 -0.000000 71.161142
RightHand -16.324189 -0.000000 -68.641841
RightHandThumb1 -24.326973 -0.000000 -32.862282
LeftUpLeg 40.990064 -1.878591 22.094349
LeftLeg 73.451276 -0.000000 -0.000000
LeftFoot -25.016982 7.087689 -30.857467
LeftToeBase 2.760489 -0.000000 -0.000000
RightUpLeg 33.672796 1.857172 -22.703723
RightLeg 70.618147 -0.000000 -0.000000
RightFoot -16.521803 -33.400126 2.322640
RightToeBase 2.909713 -0.000000 -0.000000
1090
root 4.512976 26.110615 0.949170 -43.031000 82.619188 47.070588
Spine -45.878157 -0.509681 -0.045350
Head -108.567725 6.393774 8.068357
LeftShoulder -35.000083 2.537570 42.463988
LeftArm 127.905488 -58.453108 -118.876970
LeftForeArm 34.244482 0.000000 48.505998
LeftHand -35.404205 -0.000000 123.144460
LeftHandThumb1 -26.253704 0.000000 33.147579
RightShoulder -31.918003 30.816878 -52.398443
RightArm 231.498325 114.171442 228.467741
RightForeArm -57.671139 -0.000000 71.130625
RightHand -16.229517 -0.000000 -68.865611
RightHandThumb1 -24.326973 -0.000000 -32.862282
LeftUpLeg 40.839250 -1.933325 22.085199
LeftLeg 72.589166 -0.000000 -0.000000
LeftFoot -25.448524 7.210357 -30.778978
LeftToeBase 3.778512 -0.000000 -0.000000
RightUpLeg 33.565930 1.648210 -22.683616
RightLeg 70.517718 -0.000000 -0.000000
RightFoot -16.595440 -33.389354 2.390481
RightToeBase 3.361718 -0.000000 -0.000000
1091
root 4.508738 26.110586 0.953746 -43.762033 82.646277 46.174641
Spine -46.057861 -0.503375 -0.076261
Head -108.701147 6.074255 8.060735
LeftShoulder -34.773334 1.977161 42.219311
LeftArm 127.740603 -59.047180 -117.763776
LeftForeArm 33.835490 -0.000000 47.852362
LeftHand -35.276963 -0.000000 123.354262
LeftHandThumb1 -26.253704 0.000000 33.147579
RightShoulder -32.080563 30.695405 -52.597311
RightArm 230.625907 114.237854 227.605748
RightForeArm -57.269479 -0.000000 70.964637
RightHand -16.033853 -0.000000 -69.205762
RightHandThumb1 -24.326973 -0.000000 -32.862282
LeftUpLeg 40.676824 -1.943443 22.154625
LeftLeg 71.905169 -0.000000 -0.000000
LeftFoot -25.702948 7.489707 -30.699685
LeftToeBase 4.489920 -0.000000 -0.000000
RightUpLeg 33.464519 1.494975 -22.595325
RightLeg 70.459156 -0.000000 -0.000000
RightFoot -16.566867 -33.400831 2.488915
RightToeBase 3.313677 -0.000000 -0.000000
1092
root 4.504746 26.111603 0.955873 -44.389122 82.696233 45.430085
Spine -46.199890 -0.556734 -0.151703
Head -108.934375 5.990257 7.720787
LeftShoulder -34.665833 1.638070 42.184425
LeftArm 127.445620 -59.348805 -117.004513
LeftForeArm 33.599501 -0.000000 47.520715
LeftHand -35.228448 -0.000000 123.404673
LeftHandThumb1 -26.253704 0.000000 33.147579
RightShoulder -32.114602 30.623380 -52.609408
RightArm 229.963407 114.238840 226.848457
RightForeArm -57.017563 -0.000000 70.771790
RightHand -15.887585 -0.000000 -69.517053
RightHandThumb1 -24.326973 -0.000000 -32.862282
LeftUpLeg 40.481077 -1.927849 22.232632
LeftLeg 71.381870 -0.000000 -0.000000
LeftFoot -25.791329 7.995722 -30.641106
LeftToeBase 4.899720 -0.000000 -0.000000
RightUpLeg 33.414235 1.350670 -22.557464
RightLeg 70.384840 -0.000000 -0.000000
RightFoot -16.358693 -33.494547 2.361659
RightToeBase 3.052340 -0.000000 -0.000000
